<svg height="65cm" viewBox="0 0 649.99996 650" width="65cm" xmlns="http://www.w3.org/2000/svg">
  <path d="m324.99686 620.58035a11.953543 11.953543 0 0 0 11.64845-11.9536v-454.23446h135.66007a11.969164 11.969164 0 0 0 1.22056-23.90719 11.933958 11.933958 0 0 0 -1.22056 0h-145.68045a11.933958 11.933958 0 0 0 -1.73239-.19686 11.933958 11.933958 0 0 1 -.0512 0 11.933958 11.933958 0 0 0 -2.34269.19686h-145.42646a11.953595 11.953595 0 1 0 0 23.90719h135.66005v454.23446a11.953543 11.953543 0 0 0 12.25872 11.9536zm-.0512-528.499507c20.66778 0 34.79279-15.94304 34.79279-37.18369 0-21.81255-14.73528-37.13153-35.40306-37.13153-20.61954 0-34.74161 15.31898-34.74161 37.13153 0 21.24065 13.53933 37.18369 35.35188 37.18369z" stroke-width="26.043484" />
</svg>
